<?xml version="1.0" standalone="no"?>
<!DOCTYPE svg PUBLIC "-//W3C//DTD SVG 20010904//EN"
 "http://www.w3.org/TR/2001/REC-SVG-20010904/DTD/svg10.dtd">
<svg version="1.0" xmlns="http://www.w3.org/2000/svg"
 width="342.000000pt" height="348.000000pt" viewBox="0 0 342.000000 348.000000"
 preserveAspectRatio="xMidYMid meet">

<g transform="translate(0.000000,348.000000) scale(0.100000,-0.100000)"
fill="#000000" stroke="none">
<path d="M1530 3100 c-337 -35 -620 -173 -848 -414 -113 -120 -160 -190 -246
-371 -56 -116 -93 -235 -113 -360 -8 -55 -19 -108 -24 -117 -13 -25 -12 -248
1 -248 6 0 10 -13 10 -29 0 -46 36 -209 65 -296 38 -115 117 -268 185 -360 33
-44 70 -96 84 -116 38 -56 162 -165 266 -235 153 -101 323 -173 498 -209 83
-17 278 -36 313 -30 13 2 58 6 100 9 261 22 531 132 742 304 l78 63 39 -35
c49 -44 100 -49 124 -14 27 37 19 66 -29 115 l-45 45 29 34 c129 146 247 411
286 639 17 102 23 354 10 438 -12 73 -53 230 -80 300 -42 114 -130 276 -196
364 l-39 53 40 40 c48 48 52 79 13 110 -34 26 -71 21 -119 -15 l-33 -25 -104
79 c-246 187 -489 272 -807 285 -63 3 -153 1 -200 -4z m420 -144 c378 -79 652
-291 851 -661 48 -89 80 -175 110 -295 21 -83 24 -118 24 -285 0 -176 -2 -198
-29 -300 -49 -189 -130 -354 -245 -497 -197 -246 -402 -374 -716 -445 -115
-26 -407 -26 -520 1 -183 43 -364 123 -489 218 -96 73 -98 77 -48 123 23 20
42 43 42 49 0 16 -52 66 -68 66 -7 0 -31 -17 -53 -37 l-42 -38 -48 53 c-104
113 -218 345 -260 530 -29 125 -36 358 -15 484 29 176 96 350 188 488 23 36
45 70 48 76 3 6 20 28 38 48 34 39 43 39 75 -1 34 -42 52 -46 86 -17 17 14 31
31 31 37 0 6 -19 30 -42 54 -49 50 -50 49 65 135 145 108 346 193 527 223 41
7 143 13 225 14 122 1 171 -4 265 -23z"/>
<path d="M1525 2813 c-167 -23 -371 -108 -503 -209 -204 -155 -356 -406 -408
-671 -20 -102 -22 -303 -4 -402 56 -306 210 -557 435 -712 28 -19 55 -39 60
-46 6 -7 38 -26 71 -42 315 -155 691 -160 997 -14 54 26 101 52 105 58 4 5 34
30 67 55 133 99 231 212 310 363 79 149 114 288 122 482 12 280 -67 516 -252
748 -175 221 -388 341 -685 387 -63 10 -254 11 -315 3z m365 -127 c233 -58
344 -118 486 -260 130 -131 190 -231 238 -400 33 -112 32 -131 -4 -185 -26
-38 -30 -53 -30 -109 0 -56 5 -75 35 -129 39 -71 41 -93 20 -173 -53 -200
-208 -349 -420 -406 -76 -20 -267 -29 -320 -15 -22 5 -87 25 -145 42 l-105 32
-355 4 -355 3 -43 47 c-99 111 -176 320 -188 512 -8 126 15 289 56 404 60 163
214 373 352 475 103 77 287 152 433 176 54 8 289 -3 345 -18z m-155 -1751
c108 -35 133 -39 245 -42 108 -3 137 -1 213 20 48 13 87 21 87 16 0 -16 -74
-70 -147 -105 -43 -21 -80 -42 -83 -45 -18 -24 -307 -72 -379 -64 -15 2 -55 6
-91 9 -66 6 -210 41 -220 54 -3 4 -36 22 -75 40 -86 41 -195 113 -195 129 0
23 88 32 305 29 l220 -2 120 -39z"/>
<path d="M1341 2244 c-179 -119 -341 -221 -360 -227 -30 -10 -36 -17 -39 -42
-1 -17 6 -40 16 -53 l18 -23 719 1 c434 0 723 4 729 10 6 6 4 16 -5 26 -12 15
-12 17 0 9 11 -6 13 -3 8 16 -4 13 -7 30 -7 37 0 7 -13 12 -30 12 -16 0 -30 4
-30 8 0 5 -6 9 -13 9 -8 0 -84 48 -170 106 -86 59 -158 107 -161 107 -3 0 -80
50 -171 110 -92 61 -169 110 -173 109 -4 0 -153 -97 -331 -215z m372 53 c21
-12 108 -67 193 -122 85 -55 163 -105 172 -110 48 -28 48 -29 12 -38 -37 -8
-831 -23 -865 -15 -15 3 42 45 209 156 126 84 232 152 235 152 3 0 23 -10 44
-23z m697 -377 c0 -5 -4 -10 -10 -10 -5 0 -10 5 -10 10 0 6 5 10 10 10 6 0 10
-4 10 -10z"/>
<path d="M2378 2023 c6 -2 18 -2 25 0 6 3 1 5 -13 5 -14 0 -19 -2 -12 -5z"/>
<path d="M1035 1810 c-20 -33 25 -100 67 -100 19 0 18 11 22 -350 l1 -85 -32
-3 c-41 -4 -55 -22 -51 -69 3 -34 6 -38 32 -41 23 -3 26 -6 15 -13 -9 -7 8 -8
51 -4 36 4 313 10 615 13 l550 7 3 38 c4 46 -12 69 -47 65 l-26 -3 -3 221 -3
222 35 6 c37 7 46 20 46 72 l0 34 -634 0 c-423 0 -637 -3 -641 -10z m414 -314
l-4 -215 -93 -3 -92 -3 0 218 0 217 96 0 96 0 -3 -214z m316 -6 l0 -215 -92
-3 -93 -3 -1 153 c-1 84 -3 184 -4 221 l-3 68 97 -3 96 -3 0 -215z m335 0 l0
-220 -99 0 -100 0 -3 119 c-2 66 -2 165 0 220 l3 101 99 0 100 0 0 -220z
m-913 -336 c-3 -3 -12 -4 -19 -1 -8 3 -5 6 6 6 11 1 17 -2 13 -5z"/>
</g>
</svg>
